<svg width="35" height="34" viewBox="0 0 35 34" fill="none" xmlns="http://www.w3.org/2000/svg">
<path d="M4.62002 22.5692C4.92543 22.5692 5.17302 20.0758 5.17302 17C5.17302 13.9242 4.92543 11.4308 4.62002 11.4308C4.3146 11.4308 4.06702 13.9242 4.06702 17C4.06702 20.0758 4.3146 22.5692 4.62002 22.5692Z" fill="black"/>
<path d="M6.09 23.188C6.43021 23.188 6.706 20.4176 6.706 17C6.706 13.5825 6.43021 10.812 6.09 10.812C5.74979 10.812 5.474 13.5825 5.474 17C5.474 20.4176 5.74979 23.188 6.09 23.188Z" fill="black"/>
<path d="M7.72801 23.8816C8.103 23.8816 8.40701 20.8006 8.40701 17C8.40701 13.1994 8.103 10.1184 7.72801 10.1184C7.35302 10.1184 7.04901 13.1994 7.04901 17C7.04901 20.8006 7.35302 23.8816 7.72801 23.8816Z" fill="black"/>
<path d="M9.54097 24.6432C9.95852 24.6432 10.297 21.2212 10.297 17C10.297 12.7788 9.95852 9.35681 9.54097 9.35681C9.12342 9.35681 8.78497 12.7788 8.78497 17C8.78497 21.2212 9.12342 24.6432 9.54097 24.6432Z" fill="black"/>
<path d="M11.557 25.4932C12.0209 25.4932 12.397 21.6906 12.397 17C12.397 12.3094 12.0209 8.50681 11.557 8.50681C11.0931 8.50681 10.717 12.3094 10.717 17C10.717 21.6906 11.0931 25.4932 11.557 25.4932Z" fill="black"/>
<path d="M13.804 26.4384C14.3181 26.4384 14.735 22.2127 14.735 17C14.735 11.7873 14.3181 7.56158 13.804 7.56158C13.2898 7.56158 12.873 11.7873 12.873 17C12.873 22.2127 13.2898 26.4384 13.804 26.4384Z" fill="black"/>
<path d="M16.296 27.4856C16.8682 27.4856 17.332 22.791 17.332 17C17.332 11.209 16.8682 6.5144 16.296 6.5144C15.7238 6.5144 15.26 11.209 15.26 17C15.26 22.791 15.7238 27.4856 16.296 27.4856Z" fill="black"/>
<path d="M19.061 28.6484C19.6989 28.6484 20.216 23.4332 20.216 17C20.216 10.5668 19.6989 5.35159 19.061 5.35159C18.4231 5.35159 17.906 10.5668 17.906 17C17.906 23.4332 18.4231 28.6484 19.061 28.6484Z" fill="black"/>
<path d="M22.134 29.9472C22.8415 29.9472 23.415 24.1505 23.415 17C23.415 9.84946 22.8415 4.0528 22.134 4.0528C21.4265 4.0528 20.853 9.84946 20.853 17C20.853 24.1505 21.4265 29.9472 22.134 29.9472Z" fill="black"/>
<path d="M25.55 31.382C26.3348 31.382 26.971 24.943 26.971 17C26.971 9.05707 26.3348 2.61801 25.55 2.61801C24.7653 2.61801 24.129 9.05707 24.129 17C24.129 24.943 24.7653 31.382 25.55 31.382Z" fill="black"/>
<path d="M29.344 32.98C30.2178 32.98 30.926 25.8255 30.926 17C30.926 8.17447 30.2178 1.01999 29.344 1.01999C28.4703 1.01999 27.762 8.17447 27.762 17C27.762 25.8255 28.4703 32.98 29.344 32.98Z" fill="black"/>
</svg>
